<svg width="1256" height="1213" viewBox="0 0 942 909.75" xmlns="http://www.w3.org/2000/svg" xmlns:xlink="http://www.w3.org/1999/xlink">
<g id="graph0" class="graph" transform="translate(195.9307169512611,907.5736036816096) scale(0.5440990795976133)">
<title>finite_state_machine</title>
<polygon fill="white" stroke="transparent" points="-4,4 -4,-1668.03 1015.1,-1668.03 1015.1,4 -4,4"/>
<!-- 0 -->
<g id="node23" class="node">
<title>0</title>
<ellipse fill="none" stroke="black" cx="18" cy="-919.23" rx="18" ry="18"/>

<text text-anchor="middle" x="18" y="-915.03" font-family="Helvetica,Arial,sans-serif" font-size="14.00">0</text></g>
<!-- 2 -->
<!-- 19 -->

<!-- 0&#45;&gt;19 -->

<!-- white -->
<g id="node21" class="node">
<title>white</title>
<ellipse fill="none" stroke="black" cx="142.72" cy="-538.23" rx="32.48" ry="32.48"/>
<text text-anchor="middle" x="142.72" y="-534.03" font-family="Helvetica,Arial,sans-serif" font-size="14.00">white</text><ellipse fill="none" stroke="black" cx="142.72" cy="-538.23" rx="36.48" ry="36.48"/>

</g>
<!-- 0&#45;&gt;white -->
<g id="edge24" class="edge">
<title>0-&gt;white</title>
<path fill="none" stroke="black" d="M18.95,-901.01C19.4,-859.35 23.72,-754.5 54,-673.63 67.73,-636.94 92.64,-599.93 112.42,-573.89"/>
<polygon fill="black" stroke="black" points="115.3,-575.9 118.64,-565.84 109.76,-571.62 115.3,-575.9"/>
<text text-anchor="middle" x="63.33" y="-695.23" font-family="Helvetica,Arial,sans-serif" font-size="14.00">t</text>
<text text-anchor="middle" x="63.33" y="-678.43" font-family="Helvetica,Arial,sans-serif" font-size="14.00"> </text>
</g>
<!-- 20 -->
<g id="node20" class="node">
<title>20</title>
<ellipse fill="none" stroke="black" cx="142.72" cy="-651.23" rx="20.86" ry="20.86"/>
<text text-anchor="middle" x="142.72" y="-647.03" font-family="Helvetica,Arial,sans-serif" font-size="14.00">20</text><ellipse fill="none" stroke="black" cx="142.72" cy="-651.23" rx="24.89" ry="24.89" style=""/>

</g>
<!-- 0&#45;&gt;20 -->
<g id="edge26" class="edge">
<title>0-&gt;20</title>
<path fill="none" stroke="black" d="M19.46,-901.09C21.5,-857.95 32.48,-748.06 90.66,-684.23 96.64,-677.67 104.2,-671.86 111.66,-667.01"/>
<polygon fill="black" stroke="black" points="113.54,-669.97 120.27,-661.78 109.9,-663.99 113.54,-669.97"/>
<text text-anchor="middle" x="63.33" y="-744.43" font-family="Helvetica,Arial,sans-serif" font-size="14.00">/</text>
</g>
<!-- 2 -->
<g id="node25" class="node">
<title>2</title>
<ellipse fill="none" stroke="black" cx="609.51" cy="-887.23" rx="18" ry="18"/>
<text text-anchor="middle" x="609.51" y="-883.03" font-family="Helvetica,Arial,sans-serif" font-size="14.00">2</text>
</g>
<!-- 0&#45;&gt;2 -->

<!-- 1 -->
<g id="node24" class="node">
<title>1</title>
<ellipse fill="none" stroke="black" cx="260.37" cy="-858.23" rx="18" ry="18"/>
<text text-anchor="middle" x="260.37" y="-854.03" font-family="Helvetica,Arial,sans-serif" font-size="14.00">1</text>
</g>
<!-- 0&#45;&gt;1 -->
<g id="edge1" class="edge">
<title>0-&gt;1</title>
<path fill="none" stroke="black" d="M18.88,-901.24C18.77,-825.03 22.82,-530.32 90.66,-476.43 126.9,-447.65 159.43,-446.56 194.77,-476.43 248.6,-521.91 257.58,-748.94 259.07,-829.68"/>
<polygon fill="black" stroke="black" points="255.58,-830.12 259.24,-840.06 262.58,-830.01 255.58,-830.12"/>
<text text-anchor="middle" x="142.72" y="-481.43" font-family="Helvetica,Arial,sans-serif" font-size="14.00">f</text>
</g><g id="edge7" class="edge">
<title>0-&gt;4</title>
<path fill="none" stroke="black" d="M19.44,-901.16C21.68,-813.13 32.58,-431.61 54,-383.43 68.04,-351.85 98.23,-324.86 119.24,-308.84"/>
<polygon fill="black" stroke="black" points="121.37,-311.62 127.34,-302.86 117.22,-305.98 121.37,-311.62"/>
<text text-anchor="middle" x="63.33" y="-388.43" font-family="Helvetica,Arial,sans-serif" font-size="14.00">r</text>
</g><g id="edge51" class="edge">
<title>0-&gt;id</title>
<path fill="none" stroke="black" d="M19.26,-937.3C20.44,-1005.29 26.48,-1252.1 54,-1453.23 66.83,-1546.98 47.09,-1647.23 141.72,-1647.23 141.72,-1647.23 141.72,-1647.23 818.48,-1647.23 927.32,-1647.23 968.41,-779.04 975.8,-598.05"/>
<polygon fill="black" stroke="black" points="979.3,-597.96 976.21,-587.83 972.31,-597.68 979.3,-597.96"/>
<text text-anchor="middle" x="518.34" y="-1651.43" font-family="Helvetica,Arial,sans-serif" font-size="14.00">_A-Za-eg-hj-oqs-z</text>
</g>
<!-- 3 -->
<g id="node10" class="node">
<title>9</title>
<ellipse fill="none" stroke="black" cx="142.72" cy="-1319.23" rx="18" ry="18"/>
<text text-anchor="middle" x="142.72" y="-1315.03" font-family="Helvetica,Arial,sans-serif" font-size="14.00">9</text><ellipse fill="none" stroke="black" cx="142.72" cy="-1319.23" rx="22" ry="22"/>

</g>
<!-- 4 -->
<g id="node27" class="node">
<title>4</title>
<ellipse fill="none" stroke="black" cx="142.72" cy="-293.23" rx="18" ry="18"/>

<text text-anchor="middle" x="142.72" y="-289.03" font-family="Helvetica,Arial,sans-serif" font-size="14.00">4</text></g><g id="node33" class="node">
<title>22</title>
<ellipse fill="none" stroke="black" cx="712.93" cy="-93.23" rx="20.89" ry="20.89"/>
<text text-anchor="middle" x="712.93" y="-89.03" font-family="Helvetica,Arial,sans-serif" font-size="14.00">22</text>
</g>
<!-- 1&#45;&gt;2 -->
<g id="edge2" class="edge">
<title>1-&gt;2</title>
<path fill="none" stroke="black" d="M278.58,-859.67C334.68,-864.36 512.55,-879.21 581.15,-884.95"/>
<polygon fill="black" stroke="black" points="580.93,-888.44 591.19,-885.78 581.52,-881.46 580.93,-888.44"/>
<text text-anchor="middle" x="393.13" y="-877.43" font-family="Helvetica,Arial,sans-serif" font-size="14.00">u</text>
</g><g id="edge14" class="edge">
<title>0-&gt;9</title>
<path fill="none" stroke="black" d="M18.85,-937.22C18.93,-984.44 22.24,-1115.36 54,-1218.23 64.36,-1251.79 66.63,-1262.63 90.66,-1288.23 97.06,-1295.04 105.27,-1300.9 113.24,-1305.63"/>
<polygon fill="black" stroke="black" points="111.57,-1308.71 122.01,-1310.48 114.96,-1302.58 111.57,-1308.71"/>
<text text-anchor="middle" x="63.33" y="-1269.43" font-family="Helvetica,Arial,sans-serif" font-size="14.00">;</text>
</g>
<!-- 8 -->

<!-- 8 -->
<g id="node31" class="node">
<title>8</title>
<ellipse fill="none" stroke="black" cx="712.93" cy="-279.23" rx="18" ry="18"/>

<text text-anchor="middle" x="712.93" y="-275.03" font-family="Helvetica,Arial,sans-serif" font-size="14.00">8</text></g><g id="edge30" class="edge">
<title>0-&gt;22</title>
<path fill="none" stroke="black" d="M19.46,-901.06C21.73,-816.4 32.37,-460.25 54,-351.23 77.4,-233.26 21.45,-95.23 141.72,-95.23 141.72,-95.23 141.72,-95.23 610.51,-95.23 634.54,-95.23 661.78,-94.66 681.97,-94.13"/>
<polygon fill="black" stroke="black" points="682.21,-97.63 692.11,-93.85 682.02,-90.63 682.21,-97.63"/>
<text text-anchor="middle" x="311.07" y="-99.43" font-family="Helvetica,Arial,sans-serif" font-size="14.00">i</text>
</g>
<!-- 3 -->
<g id="node26" class="node">
<title>3</title>
<ellipse fill="none" stroke="black" cx="712.93" cy="-933.23" rx="18" ry="18"/>
<text text-anchor="middle" x="712.93" y="-929.03" font-family="Helvetica,Arial,sans-serif" font-size="14.00">3</text>
</g><g id="node11" class="node">
<title>10</title>
<ellipse fill="none" stroke="black" cx="142.72" cy="-1254.23" rx="20.86" ry="20.86"/>
<text text-anchor="middle" x="142.72" y="-1250.03" font-family="Helvetica,Arial,sans-serif" font-size="14.00">10</text><ellipse fill="none" stroke="black" cx="142.72" cy="-1254.23" rx="24.89" ry="24.89"/>

</g>
<!-- 6 -->

<!-- 6 -->
<g id="node29" class="node">
<title>6</title>
<ellipse fill="none" stroke="black" cx="393.13" cy="-250.23" rx="18" ry="18"/>
<text text-anchor="middle" x="393.13" y="-246.03" font-family="Helvetica,Arial,sans-serif" font-size="14.00">6</text>
</g>
<!-- func -->
<g id="node1" class="node">
<title>func</title>
<ellipse fill="none" stroke="black" cx="817.48" cy="-1000.23" rx="28.37" ry="28.37"/>
<text text-anchor="middle" x="817.48" y="-996.03" font-family="Helvetica,Arial,sans-serif" font-size="14.00">func</text><ellipse fill="none" stroke="black" cx="817.48" cy="-1000.23" rx="32.39" ry="32.39"/>

</g>
<!-- 2&#45;&gt;3 -->
<g id="edge3" class="edge">
<title>2-&gt;3</title>
<path fill="none" stroke="black" d="M626.36,-894.42C642.58,-901.78 668.04,-913.32 686.97,-921.91"/>
<polygon fill="black" stroke="black" points="685.65,-925.15 696.2,-926.09 688.54,-918.78 685.65,-925.15"/>
<text text-anchor="middle" x="661.22" y="-919.43" font-family="Helvetica,Arial,sans-serif" font-size="14.00">n</text>
</g><g id="edge15" class="edge">
<title>0-&gt;10</title>
<path fill="none" stroke="black" d="M19.83,-937.19C22.07,-976.38 29.76,-1072.17 54,-1148.23 65.03,-1182.82 66.42,-1194.21 90.66,-1221.23 96.59,-1227.84 104.13,-1233.66 111.59,-1238.51"/>
<polygon fill="black" stroke="black" points="109.84,-1241.54 120.2,-1243.74 113.47,-1235.56 109.84,-1241.54"/>
<text text-anchor="middle" x="63.33" y="-1201.43" font-family="Helvetica,Arial,sans-serif" font-size="14.00">(</text>
</g>
<!-- 8&#45;&gt;6 -->
<g id="node12" class="node">
<title>11</title>
<ellipse fill="none" stroke="black" cx="142.72" cy="-1187.23" rx="20.86" ry="20.86"/>
<text text-anchor="middle" x="142.72" y="-1183.03" font-family="Helvetica,Arial,sans-serif" font-size="14.00">11</text><ellipse fill="none" stroke="black" cx="142.72" cy="-1187.23" rx="24.89" ry="24.89"/>

</g>
<!-- 5 -->
<g id="node8" class="node">
<title>int_num2</title>
<ellipse fill="none" stroke="black" cx="142.72" cy="-1533.23" rx="48.11" ry="48.11"/>
<text text-anchor="middle" x="142.72" y="-1529.03" font-family="Helvetica,Arial,sans-serif" font-size="14.00">int_num2</text><ellipse fill="none" stroke="black" cx="142.72" cy="-1533.23" rx="52.11" ry="52.11"/>

</g>
<!-- 5 -->
<g id="node28" class="node">
<title>5</title>
<ellipse fill="none" stroke="black" cx="260.37" cy="-293.23" rx="18" ry="18"/>
<text text-anchor="middle" x="260.37" y="-289.03" font-family="Helvetica,Arial,sans-serif" font-size="14.00">5</text>
</g><g id="node38" class="node">
<title>28</title>
<ellipse fill="none" stroke="black" cx="260.37" cy="-423.23" rx="20.89" ry="20.89"/>
<text text-anchor="middle" x="260.37" y="-419.03" font-family="Helvetica,Arial,sans-serif" font-size="14.00">28</text>
</g>
<!-- 3&#45;&gt;func -->
<g id="edge4" class="edge">
<title>3-&gt;func</title>
<path fill="none" stroke="black" d="M728.63,-942.83C742.33,-951.79 763.32,-965.5 781.34,-977.27"/>
<polygon fill="black" stroke="black" points="779.62,-980.33 789.9,-982.87 783.45,-974.47 779.62,-980.33"/>
<text text-anchor="middle" x="758.91" y="-970.43" font-family="Helvetica,Arial,sans-serif" font-size="14.00">c</text>
</g><g id="edge16" class="edge">
<title>0-&gt;11</title>
<path fill="none" stroke="black" d="M19.45,-937.37C21.49,-980.52 32.44,-1090.43 90.66,-1154.23 96.64,-1160.79 104.21,-1166.6 111.66,-1171.44"/>
<polygon fill="black" stroke="black" points="109.91,-1174.47 120.27,-1176.68 113.54,-1168.49 109.91,-1174.47"/>
<text text-anchor="middle" x="63.33" y="-1131.43" font-family="Helvetica,Arial,sans-serif" font-size="14.00">)</text>
</g>
<!-- 8&#45;&gt;5 -->
<g id="edge38" class="edge">
<title>0-&gt;28</title>
<path fill="none" stroke="black" d="M19.42,-901.07C21.22,-830.34 29.35,-573.45 54,-496.23 63.71,-465.81 63.45,-451.15 90.66,-434.43 133.28,-408.26 193.89,-411.96 229.67,-417.37"/>
<polygon fill="black" stroke="black" points="229.49,-420.89 239.93,-419.07 230.64,-413.98 229.49,-420.89"/>
<text text-anchor="middle" x="142.72" y="-439.43" font-family="Helvetica,Arial,sans-serif" font-size="14.00">p</text>
</g>
<!-- id -->
<g id="node3" class="node">
<title>id</title>
<ellipse fill="none" stroke="black" cx="978.06" cy="-565.23" rx="18.59" ry="18.59"/>
<text text-anchor="middle" x="978.06" y="-561.03" font-family="Helvetica,Arial,sans-serif" font-size="14.00">id</text><ellipse fill="none" stroke="black" cx="978.06" cy="-565.23" rx="22.6" ry="22.6"/>

</g><g id="edge44" class="edge">
<title>0-&gt;int_num1</title>
<path fill="none" stroke="black" d="M19.73,-937.58C22.44,-1002.37 32.97,-1220.05 54,-1286.23 63.26,-1315.37 81.98,-1343.63 99.76,-1365.88"/>
<polygon fill="black" stroke="black" points="97.2,-1368.28 106.25,-1373.8 102.61,-1363.85 97.2,-1368.28"/>
<text text-anchor="middle" x="63.33" y="-1327.43" font-family="Helvetica,Arial,sans-serif" font-size="14.00">0</text>
</g>
<!-- id&#45;&gt;id -->
<g id="edge6" class="edge">
<title>id-&gt;id</title>
<path fill="none" stroke="black" d="M964.82,-583.58C961.62,-594.95 966.04,-605.78 978.06,-605.78 986.33,-605.78 991,-600.66 992.07,-593.77"/>
<polygon fill="black" stroke="black" points="995.54,-593.29 991.3,-583.58 988.56,-593.81 995.54,-593.29"/>
<text text-anchor="middle" x="978.06" y="-609.98" font-family="Helvetica,Arial,sans-serif" font-size="14.00">a-zA-Z0-9_</text>
</g><g id="node13" class="node">
<title>12</title>
<ellipse fill="none" stroke="black" cx="142.72" cy="-1120.23" rx="20.86" ry="20.86"/>
<text text-anchor="middle" x="142.72" y="-1116.03" font-family="Helvetica,Arial,sans-serif" font-size="14.00">12</text><ellipse fill="none" stroke="black" cx="142.72" cy="-1120.23" rx="24.89" ry="24.89"/>

</g>
<!-- 2&#45;&gt;4 -->
<g id="node7" class="node">
<title>int_num1</title>
<ellipse fill="none" stroke="black" cx="142.72" cy="-1411.23" rx="48.11" ry="48.11"/>
<text text-anchor="middle" x="142.72" y="-1407.03" font-family="Helvetica,Arial,sans-serif" font-size="14.00">int_num1</text><ellipse fill="none" stroke="black" cx="142.72" cy="-1411.23" rx="52.11" ry="52.11"/>

</g>
<!-- func&#45;&gt;id -->
<g id="edge5" class="edge">
<title>func-&gt;id</title>
<path fill="none" stroke="black" d="M849.36,-994.94C876.5,-988.56 914.72,-975.01 934.83,-947.23 974.95,-891.83 977.89,-680.11 977.47,-598.02"/>
<polygon fill="black" stroke="black" points="980.97,-597.75 977.4,-587.78 973.97,-597.8 980.97,-597.75"/>
<text text-anchor="middle" x="901.79" y="-992.43" font-family="Helvetica,Arial,sans-serif" font-size="14.00">a-zA-Z0-9_</text>
</g><g id="edge17" class="edge">
<title>0-&gt;12</title>
<path fill="none" stroke="black" d="M22.34,-936.88C29.46,-970.12 48.96,-1042.65 90.66,-1087.23 96.73,-1093.71 104.31,-1099.5 111.77,-1104.34"/>
<polygon fill="black" stroke="black" points="110.01,-1107.37 120.37,-1109.59 113.65,-1101.39 110.01,-1107.37"/>
<text text-anchor="middle" x="63.33" y="-1067.43" font-family="Helvetica,Arial,sans-serif" font-size="14.00">{</text>
</g>
<!-- 2&#45;&gt;6 -->
<g id="node14" class="node">
<title>13</title>
<ellipse fill="none" stroke="black" cx="142.72" cy="-1053.23" rx="20.86" ry="20.86"/>
<text text-anchor="middle" x="142.72" y="-1049.03" font-family="Helvetica,Arial,sans-serif" font-size="14.00">13</text><ellipse fill="none" stroke="black" cx="142.72" cy="-1053.23" rx="24.89" ry="24.89"/>

</g>
<!-- 2&#45;&gt;5 -->
<g id="edge45" class="edge">
<title>0-&gt;int_num2</title>
<path fill="none" stroke="black" d="M19.22,-937.21C20.21,-996.1 25.55,-1188.37 54,-1344.23 64.63,-1402.45 62.92,-1419.96 90.66,-1472.23 93.4,-1477.39 96.63,-1482.51 100.1,-1487.46"/>
<polygon fill="black" stroke="black" points="97.38,-1489.67 106.15,-1495.61 103,-1485.49 97.38,-1489.67"/>
<text text-anchor="middle" x="63.33" y="-1436.43" font-family="Helvetica,Arial,sans-serif" font-size="14.00">1-9</text>
</g>
<!-- 4&#45;&gt;5 -->
<g id="edge8" class="edge">
<title>4-&gt;5</title>
<path fill="none" stroke="black" d="M160.78,-293.23C179.57,-293.23 210.05,-293.23 232.14,-293.23"/>
<polygon fill="black" stroke="black" points="232.23,-296.73 242.23,-293.23 232.23,-289.73 232.23,-296.73"/>
<text text-anchor="middle" x="215.88" y="-297.43" font-family="Helvetica,Arial,sans-serif" font-size="14.00">e</text>
</g><g id="edge18" class="edge">
<title>0-&gt;13</title>
<path fill="none" stroke="black" d="M27.35,-934.69C39.31,-955.84 62.97,-994.13 90.66,-1020.23 96.93,-1026.14 104.38,-1031.63 111.63,-1036.37"/>
<polygon fill="black" stroke="black" points="110.26,-1039.64 120.6,-1041.95 113.96,-1033.7 110.26,-1039.64"/>
<text text-anchor="middle" x="63.33" y="-1004.43" font-family="Helvetica,Arial,sans-serif" font-size="14.00">}</text>
</g>
<!-- 1&#45;&gt;3 -->
<g id="node15" class="node">
<title>14</title>
<ellipse fill="none" stroke="black" cx="142.72" cy="-986.23" rx="20.86" ry="20.86"/>
<text text-anchor="middle" x="142.72" y="-982.03" font-family="Helvetica,Arial,sans-serif" font-size="14.00">14</text><ellipse fill="none" stroke="black" cx="142.72" cy="-986.23" rx="24.89" ry="24.89"/>

</g>
<!-- 6&#45;&gt;6 -->

<!-- 5&#45;&gt;6 -->
<g id="edge9" class="edge">
<title>5-&gt;6</title>
<path fill="none" stroke="black" d="M277.66,-287.87C299.78,-280.6 339.57,-267.51 365.92,-258.85"/>
<polygon fill="black" stroke="black" points="367.22,-262.11 375.63,-255.66 365.04,-255.46 367.22,-262.11"/>
<text text-anchor="middle" x="311.07" y="-284.43" font-family="Helvetica,Arial,sans-serif" font-size="14.00">t</text>
</g><g id="edge19" class="edge">
<title>0-&gt;14</title>
<path fill="none" stroke="black" d="M33.88,-928.41C40.06,-932.16 47.33,-936.48 54,-940.23 72.85,-950.82 94.34,-962.1 111.33,-970.84"/>
<polygon fill="black" stroke="black" points="109.77,-973.97 120.26,-975.42 112.96,-967.74 109.77,-973.97"/>
<text text-anchor="middle" x="63.33" y="-953.43" font-family="Helvetica,Arial,sans-serif" font-size="14.00">,</text>
</g>
<!-- 6&#45;&gt;5 -->
<g id="node16" class="node">
<title>15</title>
<ellipse fill="none" stroke="black" cx="142.72" cy="-919.23" rx="20.86" ry="20.86"/>
<text text-anchor="middle" x="142.72" y="-915.03" font-family="Helvetica,Arial,sans-serif" font-size="14.00">15</text><ellipse fill="none" stroke="black" cx="142.72" cy="-919.23" rx="24.89" ry="24.89"/>

</g>
<!-- 5&#45;&gt;5 -->

<!-- 6&#45;&gt;7 -->
<g id="edge10" class="edge">
<title>6-&gt;7</title>
<path fill="none" stroke="black" d="M411.31,-250.23C448.4,-250.23 536.2,-250.23 581.07,-250.23"/>
<polygon fill="black" stroke="black" points="581.25,-253.73 591.25,-250.23 581.25,-246.73 581.25,-253.73"/>
<text text-anchor="middle" x="518.34" y="-254.43" font-family="Helvetica,Arial,sans-serif" font-size="14.00">u</text>
</g><g id="edge20" class="edge">
<title>0-&gt;15</title>
<path fill="none" stroke="black" d="M36.06,-919.23C54.45,-919.23 84.21,-919.23 107.47,-919.23"/>
<polygon fill="black" stroke="black" points="107.63,-922.73 117.63,-919.23 107.63,-915.73 107.63,-922.73"/>
<text text-anchor="middle" x="63.33" y="-923.43" font-family="Helvetica,Arial,sans-serif" font-size="14.00">=</text>
</g>
<!-- 7 -->

<!-- 7 -->
<g id="node30" class="node">
<title>7</title>
<ellipse fill="none" stroke="black" cx="609.51" cy="-250.23" rx="18" ry="18"/>
<text text-anchor="middle" x="609.51" y="-246.03" font-family="Helvetica,Arial,sans-serif" font-size="14.00">7</text>
</g><g id="node17" class="node">
<title>16</title>
<ellipse fill="none" stroke="black" cx="142.72" cy="-852.23" rx="20.86" ry="20.86"/>
<text text-anchor="middle" x="142.72" y="-848.03" font-family="Helvetica,Arial,sans-serif" font-size="14.00">16</text><ellipse fill="none" stroke="black" cx="142.72" cy="-852.23" rx="24.89" ry="24.89"/>

</g>
<!-- 5&#45;&gt;7 -->
<g id="edge21" class="edge">
<title>0-&gt;16</title>
<path fill="none" stroke="black" d="M33.89,-910.15C40.07,-906.45 47.34,-902.16 54,-898.43 72.88,-887.86 94.37,-876.53 111.36,-867.73"/>
<polygon fill="black" stroke="black" points="113,-870.82 120.28,-863.13 109.79,-864.6 113,-870.82"/>
<text text-anchor="middle" x="63.33" y="-902.43" font-family="Helvetica,Arial,sans-serif" font-size="14.00">+</text>
</g>
<!-- 7&#45;&gt;8 -->

<!-- 7&#45;&gt;8 -->
<g id="edge11" class="edge">
<title>7-&gt;8</title>
<path fill="none" stroke="black" d="M627.26,-255.02C643.13,-259.56 667.23,-266.45 685.67,-271.72"/>
<polygon fill="black" stroke="black" points="684.92,-275.15 695.5,-274.53 686.85,-268.42 684.92,-275.15"/>
<text text-anchor="middle" x="661.22" y="-272.43" font-family="Helvetica,Arial,sans-serif" font-size="14.00">r</text>
</g>
<!-- ret -->
<g id="node2" class="node">
<title>ret</title>
<ellipse fill="none" stroke="black" cx="817.48" cy="-332.23" rx="21.41" ry="21.41"/>
<text text-anchor="middle" x="817.48" y="-328.03" font-family="Helvetica,Arial,sans-serif" font-size="14.00">ret</text><ellipse fill="none" stroke="black" cx="817.48" cy="-332.23" rx="25.45" ry="25.45"/>

</g><g id="node18" class="node">
<title>17</title>
<ellipse fill="none" stroke="black" cx="142.72" cy="-785.23" rx="20.86" ry="20.86"/>
<text text-anchor="middle" x="142.72" y="-781.03" font-family="Helvetica,Arial,sans-serif" font-size="14.00">17</text><ellipse fill="none" stroke="black" cx="142.72" cy="-785.23" rx="24.89" ry="24.89"/>

</g>
<!-- 7&#45;&gt;5 -->
<!-- 8&#45;&gt;ret -->

<!-- 8&#45;&gt;ret -->
<g id="edge12" class="edge">
<title>8-&gt;ret</title>
<path fill="none" stroke="black" d="M729.51,-287.28C744.37,-294.96 767.17,-306.74 785.69,-316.32"/>
<polygon fill="black" stroke="black" points="784.17,-319.47 794.66,-320.95 787.38,-313.25 784.17,-319.47"/>
<text text-anchor="middle" x="758.91" y="-310.43" font-family="Helvetica,Arial,sans-serif" font-size="14.00">n</text>
</g><g id="edge22" class="edge">
<title>0-&gt;17</title>
<path fill="none" stroke="black" d="M27.36,-903.78C39.33,-882.64 63,-844.36 90.66,-818.23 96.92,-812.32 104.37,-806.83 111.62,-802.08"/>
<polygon fill="black" stroke="black" points="113.95,-804.76 120.6,-796.5 110.26,-798.81 113.95,-804.76"/>
<text text-anchor="middle" x="63.33" y="-863.43" font-family="Helvetica,Arial,sans-serif" font-size="14.00">-</text>
</g>
<g id="node19" class="node">
<title>18</title>
<ellipse fill="none" stroke="black" cx="142.72" cy="-718.23" rx="20.86" ry="20.86"/>
<text text-anchor="middle" x="142.72" y="-714.03" font-family="Helvetica,Arial,sans-serif" font-size="14.00">18</text><ellipse fill="none" stroke="black" cx="142.72" cy="-718.23" rx="24.89" ry="24.89"/>

</g>
<!-- ret&#45;&gt;id -->

<!-- ret&#45;&gt;id -->
<g id="edge13" class="edge">
<title>ret-&gt;id</title>
<path fill="none" stroke="black" d="M842.99,-329.6C869.36,-328.23 910.73,-330.55 934.83,-354.43 959.57,-378.95 970.68,-479.76 974.89,-532.59"/>
<polygon fill="black" stroke="black" points="971.42,-533.08 975.66,-542.79 978.4,-532.55 971.42,-533.08"/>
<text text-anchor="middle" x="901.79" y="-359.43" font-family="Helvetica,Arial,sans-serif" font-size="14.00">a-zA-Z0-9_</text>
</g><g id="edge23" class="edge">
<title>0-&gt;18</title>
<path fill="none" stroke="black" d="M22.32,-901.56C29.4,-868.29 48.85,-795.7 90.66,-751.23 96.74,-744.76 104.34,-738.99 111.8,-734.14"/>
<polygon fill="black" stroke="black" points="113.68,-737.09 120.39,-728.9 110.03,-731.12 113.68,-737.09"/>
<text text-anchor="middle" x="63.33" y="-808.43" font-family="Helvetica,Arial,sans-serif" font-size="14.00">*</text>
</g>

<!-- white&#45;&gt;white -->
<!-- white&#45;&gt;white -->
<g id="edge25" class="edge">
<title>white-&gt;white</title>
<path fill="none" stroke="black" d="M129.22,-572.29C129.22,-583.64 133.72,-592.72 142.72,-592.72 148.77,-592.72 152.78,-588.62 154.76,-582.49"/>
<polygon fill="black" stroke="black" points="158.27,-582.68 156.22,-572.29 151.34,-581.69 158.27,-582.68"/>
<text text-anchor="middle" x="142.72" y="-596.92" font-family="Helvetica,Arial,sans-serif" font-size="14.00">\t\n\blank </text>
</g>
<!-- 21 -->

<!-- 21 -->
<g id="node32" class="node">
<title>21</title>
<ellipse fill="none" stroke="black" cx="260.37" cy="-1036.23" rx="20.89" ry="20.89"/>
<text text-anchor="middle" x="260.37" y="-1032.03" font-family="Helvetica,Arial,sans-serif" font-size="14.00">21</text>
</g>
<!-- 20&#45;&gt;21 -->

<!-- 20&#45;&gt;21 -->
<g id="edge27" class="edge">
<title>20-&gt;21</title>
<path fill="none" stroke="black" d="M165.68,-660.36C176.08,-665.79 187.74,-673.7 194.77,-684.23 203.78,-697.7 241,-922.95 254.47,-1005.89"/>
<polygon fill="black" stroke="black" points="251.04,-1006.64 256.1,-1015.95 257.95,-1005.51 251.04,-1006.64"/>
<text text-anchor="middle" x="215.88" y="-799.43" font-family="Helvetica,Arial,sans-serif" font-size="14.00">/</text>
</g>
<!-- 21&#45;&gt;21 -->
<g id="edge52" class="edge">
<title>1-&gt;id</title>
<path fill="none" stroke="black" d="M264.14,-876.16C272.91,-925.59 304.82,-1060.23 392.13,-1060.23 392.13,-1060.23 392.13,-1060.23 818.48,-1060.23 874.94,-1060.23 901.74,-1054.98 934.83,-1009.23 958.81,-976.09 971.98,-695.1 975.84,-598.04"/>
<polygon fill="black" stroke="black" points="979.34,-598.06 976.24,-587.93 972.35,-597.78 979.34,-598.06"/>
<text text-anchor="middle" x="661.22" y="-1064.43" font-family="Helvetica,Arial,sans-serif" font-size="14.00">~u~l</text>
</g>
<!-- 21&#45;&gt;21 -->
<g id="edge28" class="edge">
<title>21-&gt;21</title>
<path fill="none" stroke="black" d="M252.41,-1055.74C251.18,-1065.83 253.83,-1074.92 260.37,-1074.92 264.55,-1074.92 267.14,-1071.19 268.14,-1065.86"/>
<polygon fill="black" stroke="black" points="271.64,-1065.8 268.33,-1055.74 264.65,-1065.68 271.64,-1065.8"/>
<text text-anchor="middle" x="260.37" y="-1079.12" font-family="Helvetica,Arial,sans-serif" font-size="14.00">.</text>
</g>
<!-- comment -->

<!-- comment -->
<g id="node22" class="node">
<title>comment</title>
<ellipse fill="none" stroke="black" cx="393.13" cy="-1139.23" rx="46.95" ry="46.95"/>
<text text-anchor="middle" x="393.13" y="-1135.03" font-family="Helvetica,Arial,sans-serif" font-size="14.00">comment</text><ellipse fill="none" stroke="black" cx="393.13" cy="-1139.23" rx="50.94" ry="50.94"/>

</g>
<!-- 21&#45;&gt;comment -->

<!-- 21&#45;&gt;comment -->
<g id="edge29" class="edge">
<title>21-&gt;comment</title>
<path fill="none" stroke="black" d="M275.52,-1050.43C283.08,-1057.78 292.68,-1066.76 301.74,-1074.23 314.47,-1084.72 328.74,-1095.43 342.13,-1105.06"/>
<polygon fill="black" stroke="black" points="340.15,-1107.95 350.33,-1110.9 344.22,-1102.24 340.15,-1107.95"/>
<text text-anchor="middle" x="311.07" y="-1091.43" font-family="Helvetica,Arial,sans-serif" font-size="14.00">\n</text>
</g>
<g id="edge53" class="edge">
<title>2-&gt;id</title>
<path fill="none" stroke="black" d="M627.42,-889.93C682.12,-897.6 855.36,-913.26 934.83,-819.23 962.6,-786.38 972.48,-659.38 975.68,-598.35"/>
<polygon fill="black" stroke="black" points="979.19,-598.26 976.18,-588.1 972.19,-597.92 979.19,-598.26"/>
<text text-anchor="middle" x="758.91" y="-898.43" font-family="Helvetica,Arial,sans-serif" font-size="14.00">~n</text>
</g>
<!-- 23 -->
<g id="node34" class="node">
<title>23</title>
<ellipse fill="none" stroke="black" cx="817.48" cy="-40.23" rx="20.89" ry="20.89"/>
<text text-anchor="middle" x="817.48" y="-36.03" font-family="Helvetica,Arial,sans-serif" font-size="14.00">23</text>
</g><g id="edge33" class="edge">
<title>1-&gt;25</title>
<path fill="none" stroke="black" d="M274.87,-846.87C296.98,-828.27 341.21,-791.07 368.58,-768.05"/>
<polygon fill="black" stroke="black" points="371.09,-770.51 376.49,-761.39 366.58,-765.15 371.09,-770.51"/>
<text text-anchor="middle" x="311.07" y="-826.43" font-family="Helvetica,Arial,sans-serif" font-size="14.00">l</text>
</g>
<!-- 22&#45;&gt;23 -->
<g id="edge31" class="edge">
<title>22-&gt;23</title>
<path fill="none" stroke="black" d="M729.9,-80.62C736.42,-75.82 744.16,-70.52 751.63,-66.43 763.08,-60.16 776.35,-54.54 787.89,-50.12"/>
<polygon fill="black" stroke="black" points="789.33,-53.32 797.5,-46.57 786.91,-46.75 789.33,-53.32"/>
<text text-anchor="middle" x="758.91" y="-71.43" font-family="Helvetica,Arial,sans-serif" font-size="14.00">n</text>
</g>
<!-- int -->
<g id="node4" class="node">
<title>int</title>
<ellipse fill="none" stroke="black" cx="978.06" cy="-25.23" rx="21.43" ry="21.43"/>
<text text-anchor="middle" x="978.06" y="-21.03" font-family="Helvetica,Arial,sans-serif" font-size="14.00">int</text><ellipse fill="none" stroke="black" cx="978.06" cy="-25.23" rx="25.46" ry="25.46"/>

</g>
<!-- 23&#45;&gt;int -->
<g id="edge32" class="edge">
<title>23-&gt;int</title>
<path fill="none" stroke="black" d="M837.33,-33.82C846.67,-30.96 858.18,-27.92 868.75,-26.43 893.29,-22.99 921.25,-22.77 942.62,-23.37"/>
<polygon fill="black" stroke="black" points="942.72,-26.88 952.84,-23.73 942.97,-19.88 942.72,-26.88"/>
<text text-anchor="middle" x="901.79" y="-31.43" font-family="Helvetica,Arial,sans-serif" font-size="14.00">t</text>
</g><g id="edge54" class="edge">
<title>3-&gt;id</title>
<path fill="none" stroke="black" d="M731,-933.31C777.8,-933.16 906.53,-930.06 934.83,-901.23 976.33,-858.94 978.66,-674.91 977.77,-598.59"/>
<polygon fill="black" stroke="black" points="981.27,-598.09 977.62,-588.14 974.27,-598.19 981.27,-598.09"/>
<text text-anchor="middle" x="817.48" y="-935.43" font-family="Helvetica,Arial,sans-serif" font-size="14.00">~c</text>
</g>
<!-- 25 -->
<g id="node35" class="node">
<title>25</title>
<ellipse fill="none" stroke="black" cx="393.13" cy="-748.23" rx="20.89" ry="20.89"/>
<text text-anchor="middle" x="393.13" y="-744.03" font-family="Helvetica,Arial,sans-serif" font-size="14.00">25</text>
</g><g id="edge55" class="edge">
<title>4-&gt;id</title>
<path fill="none" stroke="black" d="M148.08,-275.91C159.22,-236.25 192.66,-142.23 259.37,-142.23 259.37,-142.23 259.37,-142.23 818.48,-142.23 874.08,-142.23 901.05,-144.06 934.83,-188.23 975.8,-241.8 978.25,-450.95 977.58,-532.46"/>
<polygon fill="black" stroke="black" points="974.08,-532.6 977.48,-542.64 981.08,-532.67 974.08,-532.6"/>
<text text-anchor="middle" x="609.51" y="-146.43" font-family="Helvetica,Arial,sans-serif" font-size="14.00">~e</text>
</g>
<!-- 24&#45;&gt;25 -->

<!-- 26 -->
<g id="node36" class="node">
<title>26</title>
<ellipse fill="none" stroke="black" cx="609.51" cy="-748.23" rx="20.89" ry="20.89"/>
<text text-anchor="middle" x="609.51" y="-744.03" font-family="Helvetica,Arial,sans-serif" font-size="14.00">26</text>
</g>
<!-- 25&#45;&gt;26 -->
<g id="edge34" class="edge">
<title>25-&gt;26</title>
<path fill="none" stroke="black" d="M413.92,-748.23C451.65,-748.23 534.08,-748.23 578.58,-748.23"/>
<polygon fill="black" stroke="black" points="578.77,-751.73 588.77,-748.23 578.77,-744.73 578.77,-751.73"/>
<text text-anchor="middle" x="518.34" y="-752.43" font-family="Helvetica,Arial,sans-serif" font-size="14.00">o</text>
</g><g id="edge56" class="edge">
<title>5-&gt;id</title>
<path fill="none" stroke="black" d="M278.26,-296.58C285.49,-298.02 294.03,-299.71 301.74,-301.23 545.71,-349.4 607.44,-357.82 850.75,-409.23 888.23,-417.15 906.72,-402.2 934.83,-428.23 963.74,-455.01 973.05,-501.07 975.93,-532.32"/>
<polygon fill="black" stroke="black" points="972.48,-532.98 976.71,-542.69 979.46,-532.46 972.48,-532.98"/>
<text text-anchor="middle" x="661.22" y="-377.43" font-family="Helvetica,Arial,sans-serif" font-size="14.00">~t</text>
</g>
<!-- 27 -->
<!-- 26&#45;&gt;id -->
<g id="edge63" class="edge">
<title>26-&gt;id</title>
<path fill="none" stroke="black" d="M630.07,-745.77C696.62,-737.26 911.41,-708.42 934.83,-688.23 960.91,-665.75 970.9,-626.4 974.72,-598.26"/>
<polygon fill="black" stroke="black" points="978.23,-598.42 975.9,-588.08 971.27,-597.61 978.23,-598.42"/>
<text text-anchor="middle" x="758.91" y="-733.43" font-family="Helvetica,Arial,sans-serif" font-size="14.00">~a</text>
</g>
<!-- 27 -->
<g id="node37" class="node">
<title>27</title>
<ellipse fill="none" stroke="black" cx="712.93" cy="-773.23" rx="20.89" ry="20.89"/>
<text text-anchor="middle" x="712.93" y="-769.03" font-family="Helvetica,Arial,sans-serif" font-size="14.00">27</text>
</g>
<!-- 26&#45;&gt;27 -->

<!-- 26&#45;&gt;27 -->
<g id="edge35" class="edge">
<title>26-&gt;27</title>
<path fill="none" stroke="black" d="M630.06,-753.05C645.03,-756.74 665.91,-761.89 682.84,-766.06"/>
<polygon fill="black" stroke="black" points="682.24,-769.52 692.78,-768.51 683.91,-762.72 682.24,-769.52"/>
<text text-anchor="middle" x="661.22" y="-768.43" font-family="Helvetica,Arial,sans-serif" font-size="14.00">a</text>
</g>
<!-- float -->
<g id="node5" class="node">
<title>float</title>
<ellipse fill="none" stroke="black" cx="817.48" cy="-773.23" rx="28.94" ry="28.94"/>
<text text-anchor="middle" x="817.48" y="-769.03" font-family="Helvetica,Arial,sans-serif" font-size="14.00">float</text><ellipse fill="none" stroke="black" cx="817.48" cy="-773.23" rx="32.97" ry="32.97"/>

</g><g id="edge57" class="edge">
<title>6-&gt;id</title>
<path fill="none" stroke="black" d="M409.56,-242.5C444.2,-225.88 531.22,-188.23 608.51,-188.23 608.51,-188.23 608.51,-188.23 818.48,-188.23 874.42,-188.23 900.82,-191.82 934.83,-236.23 969.95,-282.09 975.96,-458.15 976.92,-532.16"/>
<polygon fill="black" stroke="black" points="973.42,-532.34 977.02,-542.31 980.42,-532.27 973.42,-532.34"/>
<text text-anchor="middle" x="712.93" y="-192.43" font-family="Helvetica,Arial,sans-serif" font-size="14.00">~u</text>
</g>
<!-- 27&#45;&gt;float -->

<!-- 27&#45;&gt;id -->
<g id="edge64" class="edge">
<title>27-&gt;id</title>
<path fill="none" stroke="black" d="M729.53,-785.95C743.06,-796.11 763.65,-809.56 784.2,-815.23 850,-833.4 890.39,-837.05 934.83,-785.23 958.56,-757.55 970.19,-652.4 974.7,-598.11"/>
<polygon fill="black" stroke="black" points="978.21,-598.22 975.52,-587.97 971.23,-597.66 978.21,-598.22"/>
<text text-anchor="middle" x="817.48" y="-831.43" font-family="Helvetica,Arial,sans-serif" font-size="14.00">~t</text>
</g>
<!-- 27&#45;&gt;float -->
<g id="edge36" class="edge">
<title>27-&gt;float</title>
<path fill="none" stroke="black" d="M733.71,-773.23C745.32,-773.23 760.46,-773.23 774.6,-773.23"/>
<polygon fill="black" stroke="black" points="774.66,-776.73 784.66,-773.23 774.66,-769.73 774.66,-776.73"/>
<text text-anchor="middle" x="758.91" y="-777.43" font-family="Helvetica,Arial,sans-serif" font-size="14.00">t</text>
</g>
<!-- 29 -->

<!-- 28&#45;&gt;id -->
<g id="edge65" class="edge">
<title>28-&gt;id</title>
<path fill="none" stroke="black" d="M281.3,-423.23C306.95,-423.23 352.86,-423.23 392.13,-423.23 392.13,-423.23 392.13,-423.23 818.48,-423.23 876.66,-423.23 893.7,-442.08 934.83,-483.23 949.12,-497.53 959.58,-517.66 966.52,-534.4"/>
<polygon fill="black" stroke="black" points="963.29,-535.76 970.2,-543.79 969.81,-533.21 963.29,-535.76"/>
<text text-anchor="middle" x="661.22" y="-427.43" font-family="Helvetica,Arial,sans-serif" font-size="14.00">~r</text>
</g>
<!-- 29 -->
<g id="node39" class="node">
<title>29</title>
<ellipse fill="none" stroke="black" cx="393.13" cy="-497.23" rx="20.89" ry="20.89"/>
<text text-anchor="middle" x="393.13" y="-493.03" font-family="Helvetica,Arial,sans-serif" font-size="14.00">29</text>
</g><g id="edge37" class="edge">
<title>float-&gt;id</title>
<path fill="none" stroke="black" d="M849.91,-768.52C876.28,-762.92 913.02,-751.01 934.83,-726.23 966.32,-690.45 974.76,-633.94 976.78,-598.27"/>
<polygon fill="black" stroke="black" points="980.3,-598.05 977.22,-587.92 973.3,-597.76 980.3,-598.05"/>
<text text-anchor="middle" x="901.79" y="-768.43" font-family="Helvetica,Arial,sans-serif" font-size="14.00">a-zA-Z0-9_</text>
</g>
<!-- 28&#45;&gt;29 -->

<!-- 28&#45;&gt;29 -->
<g id="edge39" class="edge">
<title>28-&gt;29</title>
<path fill="none" stroke="black" d="M278.73,-433.06C301.01,-445.66 339.85,-467.65 365.78,-482.32"/>
<polygon fill="black" stroke="black" points="364.27,-485.48 374.7,-487.36 367.72,-479.39 364.27,-485.48"/>
<text text-anchor="middle" x="311.07" y="-460.43" font-family="Helvetica,Arial,sans-serif" font-size="14.00">r</text>
</g><g id="edge58" class="edge">
<title>7-&gt;id</title>
<path fill="none" stroke="black" d="M626.96,-245.37C680.28,-230.74 849.76,-193.22 934.83,-279.23 969.59,-314.37 975.86,-464.74 976.9,-532.22"/>
<polygon fill="black" stroke="black" points="973.4,-532.36 977.03,-542.31 980.4,-532.27 973.4,-532.36"/>
<text text-anchor="middle" x="758.91" y="-229.43" font-family="Helvetica,Arial,sans-serif" font-size="14.00">~r</text>
</g>
<!-- 30 -->

<!-- 29&#45;&gt;id -->
<g id="edge66" class="edge">
<title>29-&gt;id</title>
<path fill="none" stroke="black" d="M413.27,-502.99C427.7,-507.29 447.99,-513.26 465.86,-518.23 634.54,-565.17 675.97,-612.59 850.75,-602.23 888.32,-600 899.4,-604.91 934.83,-592.23 940.5,-590.2 946.19,-587.3 951.47,-584.14"/>
<polygon fill="black" stroke="black" points="953.4,-587.06 959.91,-578.69 949.61,-581.18 953.4,-587.06"/>
<text text-anchor="middle" x="712.93" y="-603.43" font-family="Helvetica,Arial,sans-serif" font-size="14.00">~i</text>
</g>
<!-- 30 -->
<g id="node40" class="node">
<title>30</title>
<ellipse fill="none" stroke="black" cx="609.51" cy="-497.23" rx="20.89" ry="20.89"/>
<text text-anchor="middle" x="609.51" y="-493.03" font-family="Helvetica,Arial,sans-serif" font-size="14.00">30</text>
</g>
<!-- 29&#45;&gt;30 -->

<!-- 29&#45;&gt;30 -->
<g id="edge40" class="edge">
<title>29-&gt;30</title>
<path fill="none" stroke="black" d="M413.92,-497.23C451.65,-497.23 534.08,-497.23 578.58,-497.23"/>
<polygon fill="black" stroke="black" points="578.77,-500.73 588.77,-497.23 578.77,-493.73 578.77,-500.73"/>
<text text-anchor="middle" x="518.34" y="-501.43" font-family="Helvetica,Arial,sans-serif" font-size="14.00">i</text>
</g>
<!-- 31 -->
<!-- 31 -->

<!-- 30&#45;&gt;id -->
<g id="edge67" class="edge">
<title>30-&gt;id</title>
<path fill="none" stroke="black" d="M629.65,-491.52C670.95,-480.14 771.12,-457.59 850.75,-480.23 891.18,-491.72 930.12,-521.74 953.82,-542.83"/>
<polygon fill="black" stroke="black" points="951.51,-545.45 961.25,-549.6 956.22,-540.28 951.51,-545.45"/>
<text text-anchor="middle" x="758.91" y="-475.43" font-family="Helvetica,Arial,sans-serif" font-size="14.00">~n</text>
</g>
<g id="node41" class="node">
<title>31</title>
<ellipse fill="none" stroke="black" cx="712.93" cy="-522.23" rx="20.89" ry="20.89"/>
<text text-anchor="middle" x="712.93" y="-518.03" font-family="Helvetica,Arial,sans-serif" font-size="14.00">31</text>
</g>
<!-- 30&#45;&gt;31 -->

<!-- 30&#45;&gt;31 -->
<g id="edge41" class="edge">
<title>30-&gt;31</title>
<path fill="none" stroke="black" d="M630.06,-502.05C645.03,-505.74 665.91,-510.89 682.84,-515.06"/>
<polygon fill="black" stroke="black" points="682.24,-518.52 692.78,-517.51 683.91,-511.72 682.24,-518.52"/>
<text text-anchor="middle" x="661.22" y="-517.43" font-family="Helvetica,Arial,sans-serif" font-size="14.00">n</text>
</g><g id="node9" class="node">
<title>float_num</title>
<ellipse fill="none" stroke="black" cx="393.13" cy="-1510.23" rx="50.94" ry="50.94"/>
<text text-anchor="middle" x="393.13" y="-1506.03" font-family="Helvetica,Arial,sans-serif" font-size="14.00">float_num</text><ellipse fill="none" stroke="black" cx="393.13" cy="-1510.23" rx="54.96" ry="54.96"/>

</g><g id="edge59" class="edge">
<title>8-&gt;id</title>
<path fill="none" stroke="black" d="M730.8,-276.39C773.81,-270.22 887.49,-261.03 934.83,-326.23 958.43,-358.73 970.3,-475.36 974.82,-532.8"/>
<polygon fill="black" stroke="black" points="971.33,-533.1 975.58,-542.8 978.31,-532.57 971.33,-533.1"/>
<text text-anchor="middle" x="817.48" y="-282.43" font-family="Helvetica,Arial,sans-serif" font-size="14.00">~n</text>
</g>
<!-- print -->

<!-- print -->
<g id="node6" class="node">
<title>print</title>
<ellipse fill="none" stroke="black" cx="817.48" cy="-522.23" rx="29.08" ry="29.08"/>
<text text-anchor="middle" x="817.48" y="-518.03" font-family="Helvetica,Arial,sans-serif" font-size="14.00">print</text><ellipse fill="none" stroke="black" cx="817.48" cy="-522.23" rx="33.05" ry="33.05"/>

</g>
<!-- 31&#45;&gt;print -->
<!-- 31&#45;&gt;print -->
<g id="edge60" class="edge">
<title>22-&gt;id</title>
<path fill="none" stroke="black" d="M733.54,-89.25C777.22,-81.66 882.76,-70.62 934.83,-128.23 961.83,-158.11 973.03,-436.45 976.12,-532.68"/>
<polygon fill="black" stroke="black" points="972.62,-532.83 976.43,-542.72 979.62,-532.61 972.62,-532.83"/>
<text text-anchor="middle" x="817.48" y="-91.43" font-family="Helvetica,Arial,sans-serif" font-size="14.00">~n</text>
</g>
<!-- 31&#45;&gt;print -->
<!-- 31&#45;&gt;print -->
<g id="edge68" class="edge">
<title>31-&gt;id</title>
<path fill="none" stroke="black" d="M730.01,-534.47C743.67,-544.2 764.2,-557.29 784.2,-564.23 847.61,-586.24 868.16,-583.02 934.83,-575.23 938.57,-574.79 942.45,-574.15 946.29,-573.39"/>
<polygon fill="black" stroke="black" points="947.18,-576.78 956.18,-571.19 945.66,-569.94 947.18,-576.78"/>
<text text-anchor="middle" x="817.48" y="-585.43" font-family="Helvetica,Arial,sans-serif" font-size="14.00">~t</text>
</g><g id="edge42" class="edge">
<title>31-&gt;print</title>
<path fill="none" stroke="black" d="M733.71,-522.23C745.02,-522.23 759.68,-522.23 773.51,-522.23"/>
<polygon fill="black" stroke="black" points="773.86,-525.73 783.86,-522.23 773.86,-518.73 773.86,-525.73"/>
<text text-anchor="middle" x="758.91" y="-526.43" font-family="Helvetica,Arial,sans-serif" font-size="14.00">t</text>
</g>

<!-- print&#45;&gt;id -->

<!-- print&#45;&gt;id -->
<g id="edge43" class="edge">
<title>print-&gt;id</title>
<path fill="none" stroke="black" d="M849.81,-530.73C877.66,-538.28 918.16,-549.26 945.95,-556.8"/>
<polygon fill="black" stroke="black" points="945.36,-560.26 955.92,-559.5 947.19,-553.5 945.36,-560.26"/>
<text text-anchor="middle" x="901.79" y="-558.43" font-family="Helvetica,Arial,sans-serif" font-size="14.00">a-zA-Z0-9_</text>
</g>

<!-- dot -->
<g id="node42" class="node">
<title>dot</title>
<ellipse fill="none" stroke="black" cx="260.37" cy="-1510.23" rx="23.25" ry="23.25"/>
<text text-anchor="middle" x="260.37" y="-1506.03" font-family="Helvetica,Arial,sans-serif" font-size="14.00">dot</text>
</g><g id="edge61" class="edge">
<title>23-&gt;id</title>
<path fill="none" stroke="black" d="M838.43,-41.92C868.27,-44.9 922.38,-52.15 934.83,-66.43 965.4,-101.51 974.38,-426.93 976.49,-532.4"/>
<polygon fill="black" stroke="black" points="973,-532.54 976.69,-542.47 979.99,-532.41 973,-532.54"/>
<text text-anchor="middle" x="901.79" y="-71.43" font-family="Helvetica,Arial,sans-serif" font-size="14.00">~t</text>
</g>
<!-- integer_1&#45;&gt;dot -->

<!-- integer_2&#45;&gt;integer_2 -->
<g id="edge47" class="edge">
<title>int_num1-&gt;dot</title>
<path fill="none" stroke="black" d="M182.87,-1444.75C199.79,-1459.23 219.1,-1475.76 234.08,-1488.59"/>
<polygon fill="black" stroke="black" points="232.05,-1491.45 241.92,-1495.3 236.6,-1486.13 232.05,-1491.45"/>
<text text-anchor="middle" x="215.88" y="-1479.43" font-family="Helvetica,Arial,sans-serif" font-size="14.00">.</text>
</g>
<!-- integer_2&#45;&gt;dot -->
<g id="edge46" class="edge">
<title>int_num2-&gt;int_num2</title>
<path fill="none" stroke="black" d="M129.55,-1583.61C130.73,-1594.98 135.12,-1603.29 142.72,-1603.29 147.82,-1603.29 151.48,-1599.54 153.69,-1593.63"/>
<polygon fill="black" stroke="black" points="157.16,-1594.13 155.89,-1583.61 150.32,-1592.63 157.16,-1594.13"/>
<text text-anchor="middle" x="142.72" y="-1607.49" font-family="Helvetica,Arial,sans-serif" font-size="14.00">0-9</text>
</g>
<!-- dot&#45;&gt;float -->
<g id="edge48" class="edge">
<title>int_num2-&gt;dot</title>
<path fill="none" stroke="black" d="M194.11,-1523.21C205.31,-1520.98 216.89,-1518.68 227.13,-1516.64"/>
<polygon fill="black" stroke="black" points="228.12,-1520.01 237.25,-1514.63 226.76,-1513.15 228.12,-1520.01"/>
<text text-anchor="middle" x="215.88" y="-1522.43" font-family="Helvetica,Arial,sans-serif" font-size="14.00">.</text>
</g>
<!-- dot&#45;&gt;float_num -->

<g id="edge49" class="edge">
<title>dot-&gt;float_num</title>
<path fill="none" stroke="black" d="M283.85,-1510.23C296.13,-1510.23 312.02,-1510.23 327.83,-1510.23"/>
<polygon fill="black" stroke="black" points="328.17,-1513.73 338.17,-1510.23 328.17,-1506.73 328.17,-1513.73"/>
<text text-anchor="middle" x="311.07" y="-1514.43" font-family="Helvetica,Arial,sans-serif" font-size="14.00">0-9</text>
</g><!-- float_num&#45;&gt;float_num -->
<g id="edge50" class="edge">
<title>float_num-&gt;float_num</title>
<path fill="none" stroke="black" d="M378.21,-1563.19C379.67,-1574.65 384.65,-1582.96 393.13,-1582.96 398.84,-1582.96 402.95,-1579.21 405.48,-1573.27"/>
<polygon fill="black" stroke="black" points="408.97,-1573.74 408.05,-1563.19 402.19,-1572.01 408.97,-1573.74"/>
<text text-anchor="middle" x="393.13" y="-1587.16" font-family="Helvetica,Arial,sans-serif" font-size="14.00">0-9</text>
</g><g id="edge62" class="edge">
<title>25-&gt;id</title>
<path fill="none" stroke="black" d="M411.22,-737.94C446.67,-717.61 531.34,-674.23 608.51,-674.23 608.51,-674.23 608.51,-674.23 818.48,-674.23 876.99,-674.23 929.67,-623.2 957.11,-590.98"/>
<polygon fill="black" stroke="black" points="959.84,-593.16 963.53,-583.23 954.45,-588.7 959.84,-593.16"/>
<text text-anchor="middle" x="712.93" y="-678.43" font-family="Helvetica,Arial,sans-serif" font-size="14.00">~o</text>
</g>

</g>
</svg>